<?xml version="1.0" encoding="UTF-8" standalone="no"?>
<svg
   xmlns:dc="http://purl.org/dc/elements/1.1/"
   xmlns:cc="http://creativecommons.org/ns#"
   xmlns:rdf="http://www.w3.org/1999/02/22-rdf-syntax-ns#"
   xmlns:svg="http://www.w3.org/2000/svg"
   xmlns="http://www.w3.org/2000/svg"
   xmlns:sodipodi="http://sodipodi.sourceforge.net/DTD/sodipodi-0.dtd"
   xmlns:inkscape="http://www.inkscape.org/namespaces/inkscape"
   enable-background="new 0 0 24 24"
   height="24"
   viewBox="0 0 24 24"
   width="24"
   version="1.1"
   id="svg18"
   sodipodi:docname="farmerSelected.svg"
   inkscape:version="1.0.2 (e86c870879, 2021-01-15)">
  <metadata
     id="metadata24">
    <rdf:RDF>
      <cc:Work
         rdf:about="">
        <dc:format>image/svg+xml</dc:format>
        <dc:type
           rdf:resource="http://purl.org/dc/dcmitype/StillImage" />
        <dc:title></dc:title>
      </cc:Work>
    </rdf:RDF>
  </metadata>
  <defs
     id="defs22" />
  <sodipodi:namedview
     pagecolor="#ffffff"
     bordercolor="#666666"
     borderopacity="1"
     objecttolerance="10"
     gridtolerance="10"
     guidetolerance="10"
     inkscape:pageopacity="0"
     inkscape:pageshadow="2"
     inkscape:window-width="1368"
     inkscape:window-height="860"
     id="namedview20"
     showgrid="true"
     inkscape:zoom="27.083333"
     inkscape:cx="3.0973946"
     inkscape:cy="12.437669"
     inkscape:window-x="-6"
     inkscape:window-y="-6"
     inkscape:window-maximized="1"
     inkscape:current-layer="layer5"
     inkscape:document-rotation="0">
    <inkscape:grid
       type="xygrid"
       id="grid19" />
  </sodipodi:namedview>
  <g
     inkscape:groupmode="layer"
     id="layer4"
     inkscape:label="Ring"
     style="display:inline">
    <ellipse
       style="fill:#000000;fill-opacity:1;stroke-width:1.00154"
       id="path950"
       cy="12.147692"
       cx="11.999998"
       rx="12"
       ry="12.036923" />
  </g>
  <g
     inkscape:groupmode="layer"
     id="layer5"
     inkscape:label="Background"
     style="display:inline">
    <circle
       style="fill:#800000;fill-opacity:1;stroke-width:2.07639"
       id="path971"
       cx="12"
       cy="12"
       r="11" />
  </g>
  <g
     inkscape:groupmode="layer"
     id="layer3"
     inkscape:label="Symbol"
     style="display:inline">
    <g
       id="g4"
       transform="matrix(0.75,0,0,0.75,3,3)">
      <rect
         fill="none"
         height="24"
         width="24"
         id="rect2"
         x="0"
         y="0" />
    </g>
    <g
       id="g16"
       transform="matrix(0.71590908,0,0,0.70634459,3.4090909,3.4981082)">
      <g
         id="g14">
        <path
           d="m 19.5,12 c 0.93,0 1.78,0.28 2.5,0.76 V 8 C 22,6.9 21.1,6 20,6 H 13.71 L 12.65,4.94 14.06,3.53 13.35,2.82 9.82,6.35 10.53,7.06 11.94,5.65 13,6.71 V 9 c 0,1.1 -0.9,2 -2,2 h -0.54 c 0.95,1.06 1.54,2.46 1.54,4 0,0.34 -0.04,0.67 -0.09,1 h 3.14 c 0.25,-2.25 2.14,-4 4.45,-4 z"
           id="path6" />
        <path
           d="M 19.5,13 C 17.57,13 16,14.57 16,16.5 16,18.43 17.57,20 19.5,20 21.43,20 23,18.43 23,16.5 23,14.57 21.43,13 19.5,13 Z m 0,5 C 18.67,18 18,17.33 18,16.5 18,15.67 18.67,15 19.5,15 c 0.83,0 1.5,0.67 1.5,1.5 0,0.83 -0.67,1.5 -1.5,1.5 z"
           id="path8" />
        <path
           d="M 4,9 H 9 C 9,7.9 8.1,7 7,7 H 4 C 3.45,7 3,7.45 3,8 3,8.55 3.45,9 4,9 Z"
           id="path10" />
        <path
           d="M 9.83,13.82 9.65,13.35 10.58,13 C 10.12,11.94 9.3,11.09 8.27,10.57 l -0.4,0.89 -0.46,-0.21 0.4,-0.9 C 7.26,10.13 6.64,10 6,10 5.47,10 4.96,10.11 4.48,10.26 L 4.82,11.17 4.35,11.35 4,10.42 C 2.94,10.88 2.09,11.7 1.57,12.73 l 0.89,0.4 -0.21,0.46 -0.9,-0.4 C 1.13,13.74 1,14.36 1,15 c 0,0.53 0.11,1.04 0.26,1.52 L 2.17,16.18 2.35,16.65 1.42,17 c 0.46,1.06 1.28,1.91 2.31,2.43 l 0.4,-0.89 0.46,0.21 -0.4,0.9 C 4.74,19.87 5.36,20 6,20 6.53,20 7.04,19.89 7.52,19.74 L 7.18,18.83 7.65,18.65 8,19.58 c 1.06,-0.46 1.91,-1.28 2.43,-2.31 l -0.89,-0.4 0.21,-0.46 0.9,0.4 C 10.87,16.26 11,15.64 11,15 11,14.47 10.89,13.96 10.74,13.48 Z M 7.15,17.77 C 5.62,18.4 3.86,17.68 3.23,16.15 2.6,14.62 3.32,12.86 4.85,12.23 c 1.53,-0.63 3.29,0.09 3.92,1.62 0.64,1.53 -0.09,3.29 -1.62,3.92 z"
           id="path12" />
      </g>
    </g>
  </g>
</svg>
