<?xml version="1.0" encoding="UTF-8" standalone="no"?>
<svg
   xmlns:dc="http://purl.org/dc/elements/1.1/"
   xmlns:cc="http://creativecommons.org/ns#"
   xmlns:rdf="http://www.w3.org/1999/02/22-rdf-syntax-ns#"
   xmlns:svg="http://www.w3.org/2000/svg"
   xmlns="http://www.w3.org/2000/svg"
   xmlns:sodipodi="http://sodipodi.sourceforge.net/DTD/sodipodi-0.dtd"
   xmlns:inkscape="http://www.inkscape.org/namespaces/inkscape"
   enable-background="new 0 0 24 24"
   height="24"
   viewBox="0 0 24 24"
   width="24"
   version="1.1"
   id="svg14"
   sodipodi:docname="producer.svg"
   inkscape:version="1.0.2 (e86c870879, 2021-01-15)">
  <metadata
     id="metadata20">
    <rdf:RDF>
      <cc:Work
         rdf:about="">
        <dc:format>image/svg+xml</dc:format>
        <dc:type
           rdf:resource="http://purl.org/dc/dcmitype/StillImage" />
      </cc:Work>
    </rdf:RDF>
  </metadata>
  <defs
     id="defs18" />
  <sodipodi:namedview
     pagecolor="#ffffff"
     bordercolor="#666666"
     borderopacity="1"
     objecttolerance="10"
     gridtolerance="10"
     guidetolerance="10"
     inkscape:pageopacity="0"
     inkscape:pageshadow="2"
     inkscape:window-width="1368"
     inkscape:window-height="860"
     id="namedview16"
     showgrid="false"
     inkscape:zoom="13.541667"
     inkscape:cx="-1.0338461"
     inkscape:cy="13.584136"
     inkscape:window-x="-6"
     inkscape:window-y="-6"
     inkscape:window-maximized="1"
     inkscape:current-layer="layer1" />
  <g
     inkscape:groupmode="layer"
     id="layer2"
     inkscape:label="Background">
    <circle
       style="fill:#000000;stroke-width:1.24788"
       id="path31"
       cx="12"
       cy="12"
       r="12" />
  </g>
  <g
     inkscape:groupmode="layer"
     id="layer3"
     inkscape:label="Circle">
    <circle
       style="fill:#ffff00;stroke-width:1.3553"
       id="path33"
       cx="12"
       cy="12"
       r="11" />
  </g>
  <g
     inkscape:groupmode="layer"
     id="layer1"
     inkscape:label="Symbol"
     style="display:inline">
    <g
       id="g4"
       transform="matrix(0.75,0,0,0.75,3,3)">
      <path
         d="M 0,0 H 24 V 24 H 0 Z"
         fill="none"
         id="path2" />
    </g>
    <g
       id="g12"
       transform="matrix(0.75,0,0,0.75,3,3)">
      <g
         id="g10">
        <path
           d="m 14.16,10.4 -5,-3.57 c -0.7,-0.5 -1.63,-0.5 -2.32,0 l -5,3.57 C 1.31,10.78 1,11.38 1,12.03 V 20 c 0,0.55 0.45,1 1,1 h 4 v -6 h 4 v 6 h 4 c 0.55,0 1,-0.45 1,-1 v -7.97 c 0,-0.65 -0.31,-1.25 -0.84,-1.63 z"
           id="path6" />
        <path
           d="M 21.03,3 H 11.97 C 10.88,3 10,3.88 10,4.97 l 0.09,0.09 c 0.08,0.05 0.16,0.09 0.24,0.14 l 5,3.57 c 0.76,0.54 1.3,1.34 1.54,2.23 H 19 v 2 h -2 v 2 h 2 v 2 h -2 v 3 1 h 4.03 C 22.12,21 23,20.12 23,19.03 V 4.97 C 23,3.88 22.12,3 21.03,3 Z M 19,9 H 17 V 7 h 2 z"
           id="path8" />
      </g>
    </g>
  </g>
</svg>
